<svg width="20" height="20" xmlns="http://www.w3.org/2000/svg" viewBox="0 0 20 20">
  <path id=""
    d="M10.16,4.82a3.76,3.76,0,0,0,2.59-1.36,4.37,4.37,0,0,0,1-2.68,2.13,2.13,0,0,0,0-.37,4.2,4.2,
    0,0,0-2.81,1.46,4.09,4.09,0,0,0-1,2.58,2.13,2.13,0,0,0,0,.35Zm-3,14.71c1.18,0,1.7-.79,3.17-.79s1.82.76,
    3.14.76,2.15-1.19,3-2.36a10.44,10.44,0,0,0,1.31-2.71,4.19,4.19,0,0,1-2.55-3.86,4.35,4.35,0,0,1,
    2.06-3.65A4.49,4.49,0,0,0,13.43,5C12,5,10.8,5.9,10.06,5.9S8.2,5.07,7,5.07c-2.38,0-4.8,2-4.8,5.69a11.83,
    11.83,0,0,0,2,6.34C5.1,18.43,5.93,19.53,7.12,19.53Z"
    fill="#fff"
  />
</svg>
