<svg width="30" height="48" viewBox="0 0 30 48" fill="none" xmlns="http://www.w3.org/2000/svg">
<circle cx="15" cy="15.1504" r="15" fill="#FEE019"/>
<rect x="6.81836" y="13.7871" width="16.3636" height="2.72727" rx="1.36364" fill="black"/>
<rect x="16.3633" y="6.96875" width="16.3636" height="2.72727" rx="1.36364" transform="rotate(90 16.3633 6.96875)" fill="black"/>
<path d="M3.31056 43.1504V35.5304H0.370563V34.6904H7.25856V35.5304H4.30656V43.1504H3.31056ZM10.6964 38.0024L10.0604 38.0624C9.46038 38.1184 9.02438 38.3064 8.75238 38.6264C8.48838 38.9464 8.35638 39.3424 8.35638 39.8144V43.1504H7.38438V37.3064H8.33238V38.3264C8.66038 37.6464 9.30438 37.2664 10.2644 37.1864L10.6124 37.1624L10.6964 38.0024ZM13.944 37.1624C14.688 37.1624 15.24 37.3544 15.6 37.7384C15.968 38.1144 16.152 38.6904 16.152 39.4664V43.1504H15.204V42.1544C15.052 42.4984 14.82 42.7664 14.508 42.9584C14.196 43.1424 13.836 43.2344 13.428 43.2344C13.052 43.2344 12.704 43.1584 12.384 43.0064C12.072 42.8544 11.824 42.6424 11.64 42.3704C11.456 42.0984 11.364 41.7984 11.364 41.4704C11.364 41.0304 11.476 40.6904 11.7 40.4504C11.924 40.2024 12.292 40.0264 12.804 39.9224C13.316 39.8104 14.028 39.7544 14.94 39.7544H15.204V39.3584C15.204 38.8704 15.104 38.5184 14.904 38.3024C14.704 38.0784 14.38 37.9664 13.932 37.9664C13.26 37.9664 12.592 38.1744 11.928 38.5904L11.604 37.8824C11.908 37.6664 12.272 37.4944 12.696 37.3664C13.128 37.2304 13.544 37.1624 13.944 37.1624ZM13.56 42.4664C14.04 42.4664 14.432 42.3064 14.736 41.9864C15.048 41.6584 15.204 41.2384 15.204 40.7264V40.3784H14.988C14.284 40.3784 13.748 40.4104 13.38 40.4744C13.012 40.5304 12.748 40.6304 12.588 40.7744C12.436 40.9104 12.36 41.1144 12.36 41.3864C12.36 41.6984 12.472 41.9584 12.696 42.1664C12.928 42.3664 13.216 42.4664 13.56 42.4664ZM20.4033 43.2344C19.8273 43.2344 19.3273 43.1104 18.9033 42.8624C18.4793 42.6144 18.1513 42.2664 17.9193 41.8184C17.6953 41.3624 17.5833 40.8304 17.5833 40.2224C17.5833 39.6144 17.6993 39.0824 17.9313 38.6264C18.1713 38.1624 18.5033 37.8024 18.9273 37.5464C19.3593 37.2904 19.8633 37.1624 20.4393 37.1624C20.8313 37.1624 21.2153 37.2344 21.5913 37.3784C21.9673 37.5144 22.2713 37.6984 22.5033 37.9304L22.1793 38.6504C21.6273 38.2024 21.0673 37.9784 20.4993 37.9784C19.8993 37.9784 19.4313 38.1744 19.0953 38.5664C18.7593 38.9584 18.5913 39.5104 18.5913 40.2224C18.5913 40.9264 18.7593 41.4704 19.0953 41.8544C19.4313 42.2384 19.8993 42.4304 20.4993 42.4304C21.0673 42.4304 21.6273 42.2064 22.1793 41.7584L22.5033 42.4784C22.2553 42.7104 21.9433 42.8944 21.5673 43.0304C21.1913 43.1664 20.8033 43.2344 20.4033 43.2344ZM28.8814 43.1504H27.6214L24.6454 40.3544V43.1504H23.6734V34.6904H24.6454V39.9584L27.3694 37.3184H28.6054L25.7014 40.1144L28.8814 43.1504Z" fill="#5E5E5E"/>
</svg>
