<?xml version="1.0" encoding="utf-8"?>
<!-- Generator: Adobe Illustrator 21.0.0, SVG Export Plug-In . SVG Version: 6.00 Build 0)  -->
<svg version="1.1" id="Capa_1" xmlns="http://www.w3.org/2000/svg" xmlns:xlink="http://www.w3.org/1999/xlink" x="0px" y="0px"
	 viewBox="0 0 72 72" style="enable-background:new 0 0 72 72;" xml:space="preserve">
<path d="M21.2,46.3c0-1.2-0.8-1.9-2.3-1.9c-0.6,0-1,0.1-1.2,0.1v3.8c0.3,0.1,0.6,0.1,1,0.1C20.2,48.4,21.2,47.7,21.2,46.3z
	 M30.3,44.5c-0.7,0-1.1,0.1-1.3,0.1v8.5c0.3,0.1,0.7,0.1,1,0.1c2.7,0,4.4-1.4,4.4-4.5C34.4,45.9,32.8,44.5,30.3,44.5z M47.1,0H18.2
	c-4.2,0-7.7,3.4-7.7,7.7V36H9.8c-1.7,0-3.1,1.4-3.1,3.1v18.7c0,1.7,1.4,3.1,3.1,3.1h0.7v3.4c0,4.2,3.4,7.7,7.7,7.7h39.5
	c4.2,0,7.7-3.4,7.7-7.7V18.1L47.1,0z M14.8,42.5c0.9-0.2,2.2-0.3,4-0.3c1.8,0,3.1,0.3,4,1c0.8,0.7,1.4,1.7,1.4,3
	c0,1.3-0.4,2.4-1.2,3.1c-1,0.9-2.5,1.4-4.2,1.4c-0.4,0-0.7,0-1-0.1v4.6h-2.9V42.5z M57.6,67.3H18.2c-1.6,0-3-1.3-3-3v-3.4H52
	c1.7,0,3.1-1.4,3.1-3.1V39.1c0-1.7-1.4-3.1-3.1-3.1H15.2V7.7c0-1.6,1.3-3,3-3l27.2,0v10c0,2.9,2.4,5.3,5.3,5.3l9.8,0l0.1,44.3
	C60.6,66,59.3,67.3,57.6,67.3z M26,55.2V42.5c1.1-0.2,2.5-0.3,4-0.3c2.5,0,4.1,0.4,5.3,1.4c1.3,1,2.2,2.6,2.2,4.9
	c0,2.5-0.9,4.2-2.2,5.3c-1.4,1.1-3.4,1.7-6,1.7C27.8,55.4,26.7,55.3,26,55.2z M47,47.7v2.4h-4.7v5.2h-2.9v-13h7.9v2.4h-5v3H47z"/>
</svg>
