<svg width="24" height="24" viewBox="0 0 24 24" fill="none" xmlns="http://www.w3.org/2000/svg">
<path fill-rule="evenodd" clip-rule="evenodd" d="M20 4H7V18H20V4ZM7 3C6.44772 3 6 3.44772 6 4V18C6 18.5523 6.44772 19 7 19H20C20.5523 19 21 18.5523 21 18V4C21 3.44772 20.5523 3 20 3H7Z" fill="#5E5E5E"/>
<path fill-rule="evenodd" clip-rule="evenodd" d="M4 8.5H5V20H16.5V21H4V8.5Z" fill="#5E5E5E"/>
<path d="M14.5996 12.3047H12.373V12.082C12.373 11.7031 12.416 11.3965 12.502 11.1621C12.5879 10.9238 12.7148 10.707 12.8828 10.5117C13.0547 10.3164 13.4375 9.97266 14.0312 9.48047C14.3477 9.22266 14.5059 8.98633 14.5059 8.77148C14.5059 8.55664 14.4414 8.39062 14.3125 8.27344C14.1875 8.15234 13.9961 8.0918 13.7383 8.0918C13.4609 8.0918 13.2305 8.18359 13.0469 8.36719C12.8672 8.55078 12.752 8.87109 12.7012 9.32812L10.4277 9.04688C10.5059 8.21094 10.8086 7.53906 11.3359 7.03125C11.8672 6.51953 12.6797 6.26367 13.7734 6.26367C14.625 6.26367 15.3125 6.44141 15.8359 6.79688C16.5469 7.27734 16.9023 7.91797 16.9023 8.71875C16.9023 9.05078 16.8105 9.37109 16.627 9.67969C16.4434 9.98828 16.0684 10.3652 15.502 10.8105C15.1074 11.123 14.8574 11.375 14.752 11.5664C14.6504 11.7539 14.5996 12 14.5996 12.3047ZM12.2969 12.8965H14.6816V15H12.2969V12.8965Z" fill="#5E5E5E"/>
</svg>
