<svg width="24" height="24" viewBox="0 0 24 24" fill="none" xmlns="http://www.w3.org/2000/svg">
<path fill-rule="evenodd" clip-rule="evenodd" d="M12 20.0526C16.4473 20.0526 20.0526 16.4473 20.0526 12C20.0526 7.55265 16.4473 3.94737 12 3.94737C7.55265 3.94737 3.94737 7.55265 3.94737 12C3.94737 16.4473 7.55265 20.0526 12 20.0526ZM12 21C16.9706 21 21 16.9706 21 12C21 7.02944 16.9706 3 12 3C7.02944 3 3 7.02944 3 12C3 16.9706 7.02944 21 12 21Z" fill="#5E5E5E"/>
<path fill-rule="evenodd" clip-rule="evenodd" d="M12 15.3158C13.8313 15.3158 15.3158 13.8313 15.3158 12C15.3158 10.1687 13.8313 8.68421 12 8.68421C10.1687 8.68421 8.68421 10.1687 8.68421 12C8.68421 13.8313 10.1687 15.3158 12 15.3158ZM12 16.2632C14.3545 16.2632 16.2632 14.3545 16.2632 12C16.2632 9.64552 14.3545 7.73684 12 7.73684C9.64552 7.73684 7.73684 9.64552 7.73684 12C7.73684 14.3545 9.64552 16.2632 12 16.2632Z" fill="#5E5E5E"/>
<path fill-rule="evenodd" clip-rule="evenodd" d="M16.0522 13.3282C16.1891 12.9102 16.2632 12.4637 16.2632 12C16.2632 11.5362 16.1891 11.0898 16.0522 10.6718L20.4958 9.02254C20.8224 9.9545 21 10.9565 21 12C21 13.0435 20.8224 14.0455 20.4958 14.9774L16.0522 13.3282ZM10.6718 16.0522C11.0898 16.1891 11.5363 16.2632 12 16.2632C12.4638 16.2632 12.9102 16.1891 13.3282 16.0522L14.9775 20.4958C14.0455 20.8224 13.0435 21 12 21C10.9565 21 9.95452 20.8224 9.02257 20.4958L10.6718 16.0522ZM7.9478 10.6718C7.81089 11.0898 7.73684 11.5363 7.73684 12C7.73684 12.4638 7.81089 12.9102 7.94781 13.3282L3.50419 14.9775C3.17759 14.0455 3 13.0435 3 12C3 10.9565 3.17758 9.95452 3.50417 9.02257L7.9478 10.6718ZM9.02254 3.50419L10.6718 7.94781C11.0898 7.81089 11.5362 7.73684 12 7.73684C12.4637 7.73684 12.9102 7.81089 13.3282 7.9478L14.9774 3.50417C14.0455 3.17758 13.0435 3 12 3C10.9565 3 9.9545 3.17759 9.02254 3.50419Z" fill="#5E5E5E"/>
</svg>
