<svg width="24" height="24" viewBox="0 0 24 24" fill="none" xmlns="http://www.w3.org/2000/svg">
<path fill-rule="evenodd" clip-rule="evenodd" d="M12.0789 3.5C10.7854 3.5 9.73684 4.5486 9.73684 5.84211C9.73684 7.13561 10.7854 8.18421 12.0789 8.18421C13.3725 8.18421 14.4211 7.13561 14.4211 5.84211C14.4211 4.5486 13.3725 3.5 12.0789 3.5ZM8.73684 5.84211C8.73684 3.99631 10.2332 2.5 12.0789 2.5C13.9247 2.5 15.4211 3.99631 15.4211 5.84211C15.4211 7.6879 13.9247 9.18421 12.0789 9.18421C10.2332 9.18421 8.73684 7.6879 8.73684 5.84211Z" fill="#5E5E5E"/>
<path fill-rule="evenodd" clip-rule="evenodd" d="M20.1579 8.07028V18.5285L19.6566 18.5272C17.9877 18.5228 16.7949 18.6524 15.7227 19.0579C14.6542 19.4619 13.6617 20.1569 12.4277 21.3582L12.0983 21.6789L11.7512 21.3776C10.5008 20.2922 9.51275 19.5875 8.43851 19.1477C7.36968 18.7102 6.17799 18.5199 4.50217 18.5272L4 18.5294V8.09216L4.58369 8.19126C7.90995 8.75601 9.59901 9.45468 12.0884 11.0661C14.656 9.51704 16.3564 8.8561 19.5567 8.19456L20.1579 8.07028ZM5 9.2809V17.531C6.51219 17.5613 7.70663 17.7676 8.81736 18.2223C9.93083 18.6781 10.9291 19.3712 12.0609 20.3262C13.2092 19.254 14.231 18.5529 15.3689 18.1225C16.4871 17.6997 17.682 17.5521 19.1579 17.5301V9.30216C16.3481 9.92238 14.7924 10.5809 12.3402 12.0833L12.0694 12.2492L11.8042 12.0747C9.42996 10.513 7.90993 9.8232 5 9.2809Z" fill="#5E5E5E"/>
</svg>
