<?xml version="1.0" encoding="utf-8"?>
<!-- Generator: Adobe Illustrator 21.0.0, SVG Export Plug-In . SVG Version: 6.00 Build 0)  -->
<svg version="1.1" id="Layer_1" xmlns="http://www.w3.org/2000/svg" xmlns:xlink="http://www.w3.org/1999/xlink" x="0px" y="0px"
	 viewBox="0 0 35 35" style="enable-background:new 0 0 35 35;" xml:space="preserve">
<style type="text/css">
	.st0{opacity:0.85;fill-rule:evenodd;clip-rule:evenodd;fill:#404040;}
	.st1{fill:#FEE019;}
</style>
<g>
	<path class="st0" d="M2.5,31.1c0-0.8,0.6-1.4,1.4-1.4h27.3c0.8,0,1.4,0.6,1.4,1.4c0,0.8-0.6,1.4-1.4,1.4H3.9
		C3.1,32.5,2.5,31.9,2.5,31.1z M5.2,20.6v5.1H8v-4.4L5.2,20.6z M3,17.8c0.3-0.3,0.8-0.3,1.2-0.2l5.5,1.4c0.6,0.2,1,0.7,1,1.3V27
		c0,0.8-0.6,1.4-1.4,1.4H3.9c-0.8,0-1.4-0.6-1.4-1.4v-8.2C2.5,18.4,2.7,18,3,17.8z M16.1,18.3v7.3h2.7V17L16.1,18.3z M20.9,13.6
		c0.4,0.2,0.6,0.7,0.6,1.2V27c0,0.8-0.6,1.4-1.4,1.4h-5.5c-0.8,0-1.4-0.6-1.4-1.4v-9.5c0-0.5,0.3-1,0.8-1.2l5.5-2.7
		C20,13.3,20.5,13.4,20.9,13.6z M27,12.9v12.8h2.7V11.5L27,12.9z M31.9,8.2c0.4,0.2,0.6,0.7,0.6,1.2V27c0,0.8-0.6,1.4-1.4,1.4h-5.5
		c-0.8,0-1.4-0.6-1.4-1.4V12c0-0.5,0.3-1,0.8-1.2l5.5-2.7C30.9,7.9,31.5,7.9,31.9,8.2z M23,3.9c0-0.8,0.6-1.4,1.4-1.4h6.8
		c0.6,0,1.2,0.4,1.3,1.1c0.1,0.6-0.2,1.3-0.7,1.5L9.9,16c-0.3,0.1-0.6,0.2-0.9,0.1l-5.5-1.4c-0.7-0.2-1.2-0.9-1-1.7
		c0.2-0.7,0.9-1.2,1.7-1l5,1.2l16.2-8.1h-1C23.6,5.2,23,4.6,23,3.9z"/>
	<polygon class="st1" points="5.2,25.7 5.2,20.6 8,21.3 8,25.7 	"/>
	<polygon class="st1" points="16.1,25.7 16.1,18.3 18.9,17 18.9,25.7 	"/>
	<polygon class="st1" points="27,25.7 27,12.9 29.8,11.5 29.8,25.7 	"/>
</g>
</svg>
