<?xml version="1.0" encoding="utf-8"?>
<!-- Generator: Adobe Illustrator 21.0.0, SVG Export Plug-In . SVG Version: 6.00 Build 0)  -->
<svg version="1.1" id="Layer_1" xmlns="http://www.w3.org/2000/svg" xmlns:xlink="http://www.w3.org/1999/xlink" x="0px" y="0px"
	 viewBox="0 0 16 16" style="enable-background:new 0 0 16 16;" xml:space="preserve">
<style type="text/css">
	.st0{fill:#44B9E8;}
	.st1{fill:none;stroke:#70D6FF;stroke-miterlimit:10;}
</style>
<path class="st0" d="M6.964,11.069c0-0.142,0.026-0.276,0.078-0.403c0.052-0.127,0.123-0.235,0.213-0.325
	c0.097-0.097,0.209-0.172,0.336-0.224c0.127-0.052,0.261-0.078,0.403-0.078s0.276,0.026,0.403,0.078
	c0.127,0.052,0.235,0.127,0.325,0.224c0.097,0.09,0.172,0.198,0.224,0.325c0.052,0.127,0.078,0.261,0.078,0.403
	s-0.026,0.276-0.078,0.403c-0.052,0.127-0.127,0.239-0.224,0.336c-0.09,0.09-0.198,0.161-0.325,0.213
	c-0.127,0.052-0.261,0.078-0.403,0.078s-0.276-0.026-0.403-0.078c-0.127-0.052-0.239-0.123-0.336-0.213
	c-0.09-0.097-0.161-0.209-0.213-0.336C6.99,11.345,6.964,11.211,6.964,11.069z M7.154,8.918c0-0.224,0.03-0.414,0.09-0.571
	C7.304,8.19,7.405,8.045,7.546,7.91c0.209-0.202,0.399-0.377,0.571-0.526C8.297,7.235,8.45,7.097,8.577,6.97
	C8.704,6.835,8.801,6.712,8.868,6.6C8.943,6.481,8.98,6.357,8.98,6.23c0-0.246-0.078-0.437-0.235-0.571
	c-0.149-0.142-0.34-0.213-0.571-0.213c-0.351,0-0.62,0.097-0.806,0.291c-0.179,0.194-0.28,0.429-0.302,0.706L5.34,6.331
	C5.422,5.54,5.713,4.939,6.214,4.528c0.5-0.418,1.142-0.627,1.926-0.627c0.343,0,0.665,0.049,0.963,0.146
	c0.306,0.09,0.575,0.228,0.806,0.414s0.414,0.418,0.549,0.694c0.134,0.276,0.202,0.594,0.202,0.952c0,0.217-0.022,0.414-0.067,0.594
	c-0.045,0.172-0.123,0.343-0.235,0.515c-0.105,0.172-0.246,0.347-0.426,0.526C9.76,7.914,9.54,8.105,9.271,8.314
	C9.099,8.448,8.984,8.579,8.924,8.706c-0.06,0.127-0.09,0.254-0.09,0.381v0.325h-1.68V8.918z"/>
<circle class="st1" cx="8" cy="8" r="7.5"/>
</svg>
