<?xml version="1.0" encoding="utf-8"?>
<!-- Generator: Adobe Illustrator 21.0.0, SVG Export Plug-In . SVG Version: 6.00 Build 0)  -->
<svg version="1.1" id="Layer_1" xmlns="http://www.w3.org/2000/svg" xmlns:xlink="http://www.w3.org/1999/xlink" x="0px" y="0px"
	 viewBox="0 0 640 154" style="enable-background:new 0 0 640 154;" xml:space="preserve">
<style type="text/css">
	.st0{fill:none;}
	.st1{fill-rule:evenodd;clip-rule:evenodd;fill:#13C6AE;}
	.st2{fill-rule:evenodd;clip-rule:evenodd;fill:#B64FE5;}
	.st3{fill-rule:evenodd;clip-rule:evenodd;fill:#CC007B;}
	.st4{fill-rule:evenodd;clip-rule:evenodd;fill:#FF6060;}
	.st5{fill-rule:evenodd;clip-rule:evenodd;fill:#70D6FF;}
	.st6{fill:#B64FE5;}
</style>
<g>
	<rect class="st0" width="640" height="154"/>
	<path class="st1" d="M284.645,46.381c1.595-1.316,4.181-1.316,5.776,0l6.476,5.345c1.595,1.316,1.595,3.45,0,4.767
		c-1.595,1.316-4.181,1.316-5.776,0l-6.476-5.345C283.051,49.831,283.051,47.697,284.645,46.381z"/>
	<path class="st2" d="M416.235,43.276c2.094,0.691,3.113,2.653,2.275,4.381l-5.134,10.594c-0.838,1.728-3.214,2.569-5.309,1.878
		c-2.094-0.691-3.113-2.653-2.275-4.381l5.134-10.594C411.764,43.425,414.14,42.584,416.235,43.276z"/>
	<path class="st3" d="M379.767,52.136c2.255,0,4.084,1.509,4.084,3.371v3.371c0,1.862-1.828,3.371-4.084,3.371
		c-2.255,0-4.084-1.509-4.084-3.371v-3.371C375.683,53.645,377.511,52.136,379.767,52.136z"/>
	<path class="st4" d="M326.47,29.608c2.14,0.589,3.296,2.497,2.583,4.263l-1.501,3.716c-0.713,1.766-3.026,2.72-5.166,2.132
		c-2.14-0.589-3.296-2.497-2.583-4.263l1.501-3.716C322.018,29.973,324.331,29.019,326.47,29.608z"/>
	<path class="st5" d="M369.342,28.898c1.009-1.665,3.462-2.34,5.479-1.507l9.03,3.726c2.017,0.832,2.835,2.857,1.826,4.522
		c-1.009,1.665-3.462,2.34-5.479,1.507l-9.03-3.726C369.151,32.587,368.333,30.563,369.342,28.898z"/>
	<path class="st6" d="M241.269,79.456c2.613-2.588,3.511-5.076,3.006-7.161c-0.505-2.083-2.356-3.549-4.756-4.209
		c-4.812-1.324-12.162,0.456-17.377,7.343l0.797,0.604c4.994-6.595,11.938-8.186,16.315-6.982c2.195,0.604,3.661,1.876,4.05,3.48
		c0.388,1.601-0.245,3.747-2.737,6.215L241.269,79.456z M244.744,48.337c-11.39,6.837-15.059,17.127-14.535,24.48
		c0.26,3.651,1.566,6.673,3.591,8.114c1.027,0.731,2.23,1.045,3.527,0.816c1.286-0.227,2.618-0.978,3.942-2.29l-0.704-0.711
		c-1.228,1.216-2.385,1.834-3.412,2.016c-1.016,0.179-1.95-0.06-2.774-0.646c-1.677-1.193-2.923-3.859-3.173-7.37
		c-0.497-6.972,2.981-16.906,14.052-23.551L244.744,48.337z M222.141,75.429c-2.688,3.549-2.615,7.487-1.324,11.573
		c1.283,4.059,3.805,8.371,6.127,12.721c2.34,4.382,4.49,8.821,5.147,13.235c0.651,4.38-0.167,8.741-3.805,13.007l0.761,0.649
		c3.843-4.506,4.723-9.165,4.034-13.803c-0.685-4.604-2.915-9.18-5.254-13.559c-2.356-4.412-4.809-8.607-6.056-12.551
		c-1.238-3.917-1.25-7.476,1.168-10.668L222.141,75.429z M228.285,125.964c-0.179,0.21-0.154,0.526,0.056,0.705
		s0.526,0.154,0.705-0.056L228.285,125.964z M245.259,49.195c0.237-0.142,0.313-0.449,0.171-0.686
		c-0.142-0.237-0.449-0.313-0.686-0.171L245.259,49.195z"/>
</g>
</svg>
