<?xml version="1.0" encoding="utf-8"?>
<!-- Generator: Adobe Illustrator 21.0.0, SVG Export Plug-In . SVG Version: 6.00 Build 0)  -->
<svg version="1.1" id="Layer_1" xmlns="http://www.w3.org/2000/svg" xmlns:xlink="http://www.w3.org/1999/xlink" x="0px" y="0px"
	 viewBox="0 0 698 125" style="enable-background:new 0 0 698 125;" xml:space="preserve">
<style type="text/css">
	.st0{clip-path:url(#SVGID_2_);}
	.st1{fill:url(#SVGID_3_);}
	.st2{fill:#F2FCFF;}
	.st3{fill:#E9F9FE;}
	.st4{fill:#FFFFFF;}
	.st5{fill:#CCE7ED;}
	.st6{fill-rule:evenodd;clip-rule:evenodd;fill:#05B8A0;}
	.st7{fill:#008573;}
	.st8{fill-rule:evenodd;clip-rule:evenodd;fill:#BF9B78;}
	.st9{fill:#4A2518;}
	.st10{fill:#BF9B78;}
	.st11{fill:#EA8F53;}
</style>
<g>
	<defs>
		<rect id="SVGID_1_" width="698" height="125"/>
	</defs>
	<clipPath id="SVGID_2_">
		<use xlink:href="#SVGID_1_"  style="overflow:visible;"/>
	</clipPath>
	<g class="st0">
		<linearGradient id="SVGID_3_" gradientUnits="userSpaceOnUse" x1="349" y1="126" x2="349" y2="-18.6695">
			<stop  offset="0" style="stop-color:#FFFFFF"/>
			<stop  offset="1" style="stop-color:#EFFBFF"/>
		</linearGradient>
		<rect class="st1" width="698" height="125"/>
		<path class="st2" d="M734.519,71.602l23.593,22.946c5.792,5.633,1.804,15.452-6.274,15.452H-26c-4.971,0-9-4.029-9-9V80.452
			c0-5.933,5.64-10.243,11.365-8.684l49.403,13.454c2.782,0.758,5.758,0.137,8.005-1.67l25.109-20.191
			c2.301-1.851,5.364-2.455,8.196-1.616l57.065,16.903c2.854,0.845,5.941,0.225,8.247-1.657l20.95-17.099
			c3.371-2.751,8.226-2.697,11.535,0.128l24.551,20.962c3.593,3.068,8.946,2.835,12.26-0.532l34.199-34.757
			c2.75-2.795,6.994-3.488,10.49-1.712l66.041,33.537c3.001,1.524,6.601,1.246,9.333-0.72l24.238-17.445
			c3.42-2.461,8.09-2.221,11.238,0.579l35.731,31.772c3.664,3.258,9.261,2.984,12.589-0.616l33.737-36.496
			c3.568-3.86,9.67-3.854,13.23,0.014l22.634,24.588c3.578,3.888,9.72,3.87,13.277-0.037l29.051-31.914
			c3.196-3.511,8.569-3.936,12.277-0.97l44.45,35.549c3.349,2.679,8.123,2.622,11.408-0.136l24.748-20.778
			c3.797-3.188,9.456-2.705,12.658,1.079l25.963,30.684c2.48,2.932,6.548,3.967,10.128,2.576l65.881-25.584
			C728.269,68.389,731.994,69.146,734.519,71.602z"/>
		<path class="st3" d="M155.047,110.601L80.115,84.1c-2.715-0.96-5.725-0.563-8.098,1.067l-17.2,11.819
			c-3.706,2.546-8.722,1.967-11.75-1.356L28.276,79.396c-3.647-4.003-9.977-3.902-13.495,0.215l-26.096,30.542
			c-4.99,5.84-0.84,14.846,6.843,14.846H694c4.971,0,9-4.029,9-9V85.58c0-6.894-7.434-11.229-13.434-7.832l-24.974,14.138
			c-3.301,1.869-7.42,1.467-10.297-1.005l-36.221-31.11c-2.674-2.297-6.443-2.821-9.642-1.341l-74.54,34.474
			c-2.82,1.304-6.113,1.062-8.712-0.642l-28.25-18.518c-3.273-2.145-7.557-1.93-10.598,0.533l-41.037,33.232
			c-3.56,2.883-8.717,2.632-11.98-0.583l-38.836-38.261c-3.508-3.457-9.144-3.451-12.646,0.013l-26.737,26.453
			c-3.52,3.483-9.194,3.467-12.695-0.035l-33.634-33.651c-3.134-3.135-8.082-3.522-11.665-0.912l-50.719,36.942
			c-3.221,2.346-7.6,2.295-10.766-0.125l-29.084-22.239c-3.684-2.817-8.904-2.373-12.06,1.024l-29.831,32.109
			C162.2,110.87,158.43,111.797,155.047,110.601z"/>
		<path class="st4" d="M59.178,13.655c6.581,1.737,7.826,6.621,6.149,10.759C64.081,27.487,61.414,28,58.745,28h-83.974
			c-7.379,0-8.42-2.207-8.664-4.138c-0.559-4.414,1.158-5.725,3.056-7.347c5.466-4.791,11.134-2.745,13.285-1.123
			c-3.037-2.695-3.29-9.607-3.037-12.726C-19.069-9.31-7.555-12.055-1.988-11.93C8.337-12.829,13.448-4.819,14.714-0.702
			C18.13-4.07,20.028-4.493,24.962-4.07c6.984,0.599,8.224,6.488,7.971,9.357c2.733-2.395,7.465-2.246,9.49-1.871
			c7.288,0.599,8.604,8.234,8.351,11.977C53.507,13.596,57.654,13.253,59.178,13.655z"/>
		<path class="st4" d="M522.248,21.11c3.62,0.955,4.304,3.641,3.382,5.917c-0.685,1.691-2.152,1.972-3.62,1.972h-46.186
			c-4.058,0-4.631-1.214-4.765-2.276c-0.307-2.428,0.637-3.149,1.681-4.041c3.006-2.635,6.124-1.51,7.307-0.618
			c-1.67-1.482-1.809-5.284-1.67-6.999c0.835-6.587,7.168-8.097,10.23-8.028c5.678-0.494,8.49,3.911,9.186,6.176
			c1.878-1.853,2.922-2.085,5.636-1.853c3.842,0.329,4.524,3.568,4.385,5.146c1.503-1.317,4.105-1.235,5.219-1.029
			c4.008,0.329,4.732,4.529,4.593,6.587C519.129,21.078,521.41,20.889,522.248,21.11z"/>
		<path class="st5" d="M615.932,51.79c4.226,12.801,18.065,60.791,23.794,80.968c1.375,2.794-2.75,0-5.125,0h-66.804
			c-2.681,0-7.477,1.942-6.716-2.29l23.352-72.449C589.811,42.189,592.5,34,600.417,34C611.365,34,611.707,38.989,615.932,51.79z"/>
		<path class="st6" d="M613.274,21.745c-1.238,0.238-4.656,0.612-6.439,0.042c-1.404-0.476-4.756-1.284-5.945-0.714v6.854
			c0.001,0,0.001,0,0.001,0v9.791h0.99V27.88c1.916-0.036,4.523,0.195,6.192,0.761c1.238,0.42,3.814,0.571,5.201,0V21.745z"/>
		<circle class="st7" cx="601.5" cy="40.282" r="1.808"/>
		<path class="st4" d="M601.5,39.474c-0.446,0-0.808,0.362-0.808,0.808h-2c0-1.551,1.257-2.808,2.808-2.808V39.474z M602.308,40.282
			c0-0.446-0.362-0.808-0.808-0.808v-2c1.551,0,2.808,1.257,2.808,2.808H602.308z M601.5,41.089c0.446,0,0.808-0.362,0.808-0.808h2
			c0,1.551-1.257,2.808-2.808,2.808V41.089z M600.692,40.282c0,0.446,0.362,0.808,0.808,0.808v2c-1.551,0-2.808-1.257-2.808-2.808
			H600.692z"/>
		<path class="st4" d="M602.874,46.221c0-1.345-8.766,8.518-6.805,11.602c1.009,1.588,1.439,1.719,3.632,2.39
			c2.068,0.633,5.704,1.745,12.869,5.009c8.434,3.842-2.762,9.987-12.332,15.241c-7.185,3.944-13.455,7.386-9.814,8.973
			c2.747,1.197,6.185,1.802,9.686,2.418c7.317,1.288,14.913,2.625,17.074,9.52c2.213,7.061,0.805,14.895-15.475,26.434
			c-16.28,11.54-46.081,15.386-67.052,43.851c-11.421,15.502-14.9,65.391-68.431,54.108s-119.479-8.206-119.479-8.206
			c-47.461,0-54.705-0.201-87.747,17.438v-63.34c124.998-13.848,213.296,36.158,244.477,3.847
			c31.18-32.312,59.901-39.748,81.964-48.724c22.063-8.975,26.387-16.322,25.653-23.895c-0.664-6.857-8.898-8.701-16.171-10.33
			c-3.853-0.863-7.437-1.666-9.482-3.122c-2.604-1.853,3.795-5.536,10.896-9.623c9.006-5.184,19.141-11.018,13.465-14.59
			c-4.291-2.701-7.89-3.741-10.481-4.49c-3.539-1.022-5.198-1.502-4.172-4.927C596.926,49.872,603.61,44.876,602.874,46.221z"/>
		<path class="st8" d="M50.675,81.529c0-2.284,2.544-11.943,3.042-12.939c1.14-0.727,3.481-2.492,3.73-3.738
			c-1.451-1.142-4.103-4.112-3.108-6.853c0.207-1.454,4.124-5.622,7.108-5.124c0.678,0,1.1,0.663,1.758,1.695
			c0.247,0.388,0.528,0.828,0.867,1.305c0.01-0.158,0.017-0.328,0.025-0.51c0.077-1.731,0.198-4.424,2.674-5.777
			c1.347-0.831,4.849-2.554,8.081-2.804c0.622-0.208,2.238-0.81,3.73-1.557c1.026,2.674,2.886,9.342,2.196,14.796l0.756,4.081
			l-1.277,0.574c-0.413,2.904-1.065,6.278-1.986,8.584c-0.414,1.246-2.528,3.462-5.511,2.216c-0.406-0.122-0.777-0.224-1.127-0.321
			c-1.433-0.395-2.52-0.694-4.319-1.896c0.213,0.475,0.386,1.69,0.576,3.035c0.295,2.081,0.635,4.475,1.239,4.929
			c-1.361,0.151-4.992,0.151-8.773,0.151C56.574,81.378,52.641,81.378,50.675,81.529z"/>
		<path class="st9" d="M43.365,61.158c0,4.66,7.282,7.603,10.956,8.217c1.715-0.981,14.128-5.08,14.625-6
			c-1.109-0.92-2.101-1.092-2.625-2.217c-2.143-4.599-1.973-7.637,0.375-8.25c1.868-0.488,1.911,0.955,2.625,1.875
			c2.25-0.408,1.569-3.818,1.875-4.533c1.96-3.434,1.71-2.056,4.875-3.375c4.5-1.875,4.828-1.125,4.125-2.25
			c-1.875-3-5.905-6.462-7.436-7.382c-1.96-1.472-6.124-1.635-7.961-1.533c-1.715,0-1.735-1.226-1.531-1.84
			c0.98-1.227,0.817-3.986,0.612-5.212c0.245-1.472-1.531-5.314-2.45-7.052c-1.96-2.698-4.899-2.555-6.124-2.146
			c-1.225,0.245-2.552-0.511-3.062-0.92c-3.185-1.472-6.022,0.409-7.043,1.533c-0.98,1.227-2.041,1.942-2.45,2.146
			c-4.899,2.207-5.103,6.03-4.593,7.665c-0.245,1.717,0.51,3.373,0.919,3.986c0.735,1.226,1.939,3.577,2.45,4.599
			c0.245,1.472,3.98,3.066,5.818,3.679c-1.715,1.962-2.96,5.314-3.368,6.745C42.752,52.574,43.058,58.603,43.365,61.158z"/>
		<path class="st10" d="M122.609,74.286c0.556,9.788-18.993,19.647-27.828,26V82.134l12.522-6.319
			c2.783-1.835,1.624-4.333,0.696-5.353L84.345,52.874c-1.67-1.223-5.797-1.02-7.653-0.765l0.301-4.16
			c1.327-1.825,0.136-1.676,3.577-2.95c6.679,1.835,23.95,10.168,30.211,13.992C122.609,67.613,123.072,71.482,122.609,74.286z"/>
		<path class="st10" d="M21.027,113.294l13.613,6.353l-9.378,13.613c-3.025,5.446-4.235,7.74-4.235,11.115
			c1.815,7.563,9.681,16.415,18.151,23.148v15.956c-3.653,0-4.629-4.904-5.143-6.958c-1.21-4.84-3.948-6.578-6.05-8.998
			c-7.192-8.278-10.562-9.395-14.823-14.599C4.821,144.375,14.939,124.007,21.027,113.294z"/>
		<path class="st11" d="M39.618,84.449c-8.836,0-18.899,18.117-22.826,27.175l19.154,10.625l2.936-3.75v4.142v36.635h24.653h24.161
			c0,0,2.729-10.928,2.729-23.781v-31.95h4.418V78.573c-5.891-0.588-17.917,3.36-22.826,5.073l-1.678-3.604H49.19l-0.736,4.407
			H39.618z"/>
		<path class="st9" d="M51.788,71.022c0,0,2.909,1.461,4.364,1.461c1.455,0,3.273-0.731,3.273-0.731s0.727-0.365,2.182-1.461
			c1.455-1.096,1.818-4.749,1.818-4.749l4.364-3.287l-16.364,4.749L51.788,71.022z"/>
	</g>
</g>
</svg>
