<?xml version="1.0" encoding="utf-8"?>
<!-- Generator: Adobe Illustrator 21.0.0, SVG Export Plug-In . SVG Version: 6.00 Build 0)  -->
<svg version="1.1" id="Layer_1" xmlns="http://www.w3.org/2000/svg" xmlns:xlink="http://www.w3.org/1999/xlink" x="0px" y="0px"
	 viewBox="0 0 24 24" style="enable-background:new 0 0 24 24;" xml:space="preserve">
<style type="text/css">
	.st0{fill:none;stroke:#5A5A5A;stroke-miterlimit:10;}
</style>
<path class="st0" d="M16.5,19.9H7.5c-0.8,0-1.5-0.7-1.5-1.5v-6.9c0-0.8,0.7-1.5,1.5-1.5h8.9c0.8,0,1.5,0.7,1.5,1.5v6.9
	C18,19.3,17.3,19.9,16.5,19.9z M13.5,12.9H18 M13.5,14.9H18 M13.5,16.9H18 M8.5,9.9c0,0,0-2.4,0-2.4c0-0.8-0.7-1.5-1.5-1.5
	S5.5,6.7,5.5,7.6c0,0,0,0.4,0,0.4 M10.5,9.9c0,0,0-2.4,0-2.4c0-1.9-1.6-3.5-3.5-3.5S3.5,5.6,3.5,7.6c0,0,0,0.4,0,0.4 M3,7.9h3"/>
</svg>
