<svg version="1" xmlns="http://www.w3.org/2000/svg" width="1466.667" height="1466.667" viewBox="0 0 1100.000000 1100.000000"><path d="M541.5 34.6c-9.6 2.2-16.6 4.8-22.5 8.5-1.4.9-6.5 4-11.5 6.9-13.4 7.8-20.4 11.9-37 21.6-8.2 4.8-19 11.1-24 13.9-23.4 13.5-49.5 28.8-64.2 37.6-4.5 2.7-8.6 4.9-9.2 4.9-.6 0-1.1.4-1.1 1 0 .5-.4 1-1 1-.5 0-9.8 5.2-20.7 11.6-39.8 23.4-49.9 29.2-53.3 31.1-2.6 1.5-78.5 45.8-96.2 56.2-9.7 5.7-40.7 23.8-53.3 31-8.2 4.8-17.5 10.3-20.5 12.3-11.2 7.2-18.5 16.3-23.7 29.3l-2.8 7v241c0 201.8.2 241.7 1.4 245 4.2 12.3 10.6 22 19 28.9 3.8 3.2 100.9 60.7 126 74.7 5.7 3.2 7.2 4.1 30.5 17.8 10.4 6.1 19 11.1 19.2 11.1.1 0 3.9 2.2 8.4 5 4.5 2.7 8.3 5 8.4 5 .2 0 6.6 3.7 14.2 8.1 7.6 4.5 44.7 26.2 82.4 48.1 37.7 22 70.1 40.9 72 42 49.5 29.2 51.8 30.2 67.5 30.3 10.7 0 16.9-1.3 25-5.3 4.2-2 95.4-54.8 106.5-61.6 1.9-1.2 4.6-2.8 6-3.6 1.4-.7 14-8.1 28-16.3 49.9-29.2 67.5-39.5 71-41.5 1.9-1 7.6-4.3 12.5-7.2 5-2.9 11.3-6.6 14-8.2 2.8-1.6 6.4-3.7 8-4.7 1.7-1 5.1-2.9 7.7-4.4 2.6-1.4 6.4-3.7 8.5-5 2.1-1.3 19.6-11.5 38.8-22.7 19.3-11.1 36.2-21.1 37.7-22.1s3-1.9 3.3-1.9c.2 0 8-4.4 17.2-9.9 9.3-5.4 22.7-13.3 29.9-17.6 7.3-4.2 15.5-9.9 18.3-12.6 6.6-6.3 12.5-15.5 15.4-23.8l2.2-6.6.3-237.8c.2-208.6 0-238.6-1.3-244.3-3.2-14-10.6-25.3-21.9-33.9-3.1-2.3-20.9-12.9-31.6-18.8-3-1.6-6.2-3.6-7.1-4.3-.8-.8-1.8-1.4-2.2-1.4-.3 0-6.2-3.4-13.2-7.5-6.9-4.1-12.7-7.5-12.9-7.5-.2 0-5.2-2.9-11.1-6.5-5.9-3.6-10.9-6.5-11.1-6.5-.2 0-4.3-2.4-9.1-5.3s-9.5-5.6-10.3-6c-.8-.4-3.3-1.8-5.5-3.2-2.2-1.4-6-3.6-8.5-5s-6.3-3.6-8.5-4.9c-2.2-1.4-5.1-3.1-6.5-3.9-5.8-3.2-10.9-6.2-17.7-10.3-4-2.4-7.5-4.4-7.9-4.4-.3 0-2.5-1.4-4.9-3-2.4-1.7-4.6-3-4.9-3-.5 0-9.3-5.1-15.6-9-1.6-1-10.4-6.1-15.5-9-1.6-1-7-4.1-12-7-10.3-6.1-30.7-18-50.5-29.5-7.4-4.3-15.2-8.9-17.2-10.2-2.1-1.2-4.1-2.3-4.5-2.3-.3 0-1.4-.6-2.2-1.4-.9-.7-3.6-2.4-6.1-3.8-2.5-1.3-5.6-3.1-7-3.9-1.4-.9-17.8-10.5-36.5-21.4-18.7-10.9-37.8-22-42.5-24.8-16.5-9.6-24.6-13.6-30.5-15-5.9-1.4-18.1-2-22-1.1z"/></svg>